Simulation
nRows=36
nColumns=15
endheader
time  TH_x TH_y TH_z SC_y  SC_z  SC_x  AC_y  AC_z  AC_x  GH_y  GH_z  GH_yy  EL_x  PS_y
5.745  0.000000  0.000000  0.000000  -49.1368002831045  11.977706339572652  17.710094234889233  55.2878510198583  15.218755657793999  14.202160945760031  21.03035284775105  52.69661378528973  -34.018867166045645  18.583271766771908  120.000000
5.80245  0.000000  0.000000  0.000000  -47.61796464936911  11.190555603990632  15.01318897021088  55.325494798000804  14.97322786211414  13.480018857870954  20.597012289776817  51.7566272608545  -33.90468540123264  18.877980218918648  120.000000
5.8599  0.000000  0.000000  0.000000  -45.90167888350062  10.128701448177116  11.680639711685053  55.22690098361284  14.755506921197888  12.801269708293791  20.116720182116758  50.43196373474856  -33.52237221011189  19.272918988723077  120.000000
5.91735  0.000000  0.000000  0.000000  -44.12198307351525  8.78840936424322  7.880890945271736  54.940476066348324  14.560482975422463  12.224638291385576  19.586243006859036  48.741045935887655  -32.817160525334366  19.677736511790567  120.000000
5.9748  0.000000  0.000000  0.000000  -42.408110084022276  7.2111269322274625  3.805143780068724  54.43265568178602  14.390302260535494  11.803193633475747  19.009822865137522  46.721770202769  -31.752932295268895  19.983265398222294  120.000000
6.03225  0.000000  0.000000  0.000000  -40.85971527278566  5.482705288976395  -0.3536407609411452  53.70226404334962  14.253974245700523  11.575204469795873  18.408396754050727  44.42490124506248  -30.33438873795304  20.095595229758665  120.000000
6.089700000000001  0.000000  0.000000  0.000000  -39.5339067847119  3.7170724875832453  -4.416801913692339  52.7872272149443  14.167654696889423  11.555369639214657  17.826157792439336  41.905089690014925  -28.62064904239963  19.964351815920214  120.000000
6.14715  0.000000  0.000000  0.000000  -38.44779894183262  2.033910254111245  -8.228949375921104  51.75859183748211  14.153846024582585  11.731366428107252  17.331282789461138  39.21384383394606  -26.725939943764697  19.589702882937207  120.000000
6.2046  0.000000  0.000000  0.000000  -37.59264124114627  0.5408204300336685  -11.661661244854905  50.70655150721738  14.238121130466421  12.066484632145826  17.01330210394079  36.39625446753131  -24.80748336968908  19.009261876643546  120.000000
6.26205  0.000000  0.000000  0.000000  -36.945758390078566  -0.6792948389325711  -14.615933713042965  49.72012202473435  14.440594110246018  12.509826332111585  16.976504477398112  33.491456637275114  -23.042429586725063  18.28112644050747  120.000000
6.3195  0.000000  0.000000  0.000000  -36.477990179584545  -1.5741896840040266  -17.027026146459068  48.873852800601405  14.76419515736573  13.00608495745516  17.333830783995857  30.538179301376857  -21.601058730619645  17.477984607487386  120.000000
6.37695  0.000000  0.000000  0.000000  -36.15254173800198  -2.1308447394663506  -18.86790569215092  48.22031672740391  15.186401148875314  13.504383450979367  18.198600804052745  27.58186571386934  -20.625250675014208  16.68369533428606  120.000000
6.4344  0.000000  0.000000  0.000000  -35.93879182903904  -2.38366644509806  -20.144311254148693  47.77476095352536  15.6574508852846  13.974513093813519  19.66565042240605  24.679766189405253  -20.212223282841865  15.985538877929516  120.000000
6.49185  0.000000  0.000000  0.000000  -35.82483018940172  -2.393462030017866  -20.890448701291522  47.51942152527497  16.11805583234175  14.398567924322013  21.784891395898953  21.907706257503705  -20.405740052677963  15.460836956809617  120.000000
6.549300000000001  0.000000  0.000000  0.000000  -35.80132283753238  -2.2156873065150426  -21.170858394782933  47.43624942033934  16.520720626750386  14.737888788604533  24.543630371904534  19.35035997768324  -21.20070230337567  15.159120370371394  120.000000
6.60675  0.000000  0.000000  0.000000  -35.863469207646  -1.913759371249525  -21.070171146754163  47.50492266045791  16.826997469429326  14.9465172571333  27.856756707145944  17.06402934700728  -22.54319409323904  15.093218723775292  120.000000
6.6642  0.000000  0.000000  0.000000  -36.003298629636085  -1.5641907993306297  -20.670474653712457  47.68422986084243  17.007888003646265  15.00404896920679  31.573890800061843  15.059724300218079  -24.336014076546608  15.242970821944954  120.000000
6.72165  0.000000  0.000000  0.000000  -36.20356539249929  -1.224000231631474  -20.041495380162928  47.929437820975004  17.054807533523395  14.909706987347963  35.51881901519238  13.324140619409464  -26.464515180885503  15.568748640319168  120.000000
6.7791  0.000000  0.000000  0.000000  -36.4434116788581  -0.9226625813592425  -19.24381452502202  48.20435603442064  16.975050039650675  14.673220981688518  39.517397749611085  11.832589698552633  -28.80659189522651  16.015263758371745  120.000000
6.83655  0.000000  0.000000  0.000000  -36.69873215990015  -0.6734142540258583  -18.331087736922907  48.48289336783452  16.780475222432  14.314130376933688  43.41817971771094  10.550745040657622  -31.24000310463169  16.508500051634506  120.000000
6.894  0.000000  0.000000  0.000000  -36.94425434149968  -0.47965191402124113  -17.349733694955948  48.74932032973816  16.483431266156575  13.85857636105945  47.10885208387761  9.43946474443372  -33.657763350619476  16.962013986502164  120.000000
6.95145  0.000000  0.000000  0.000000  -37.155563949529316  -0.33792410744694545  -16.337999261589143  48.997653782106006  16.098588951229864  13.333639286245932  50.52441111668179  8.4628470974757  -35.98625910771332  17.295200010826782  120.000000
7.008900000000001  0.000000  0.000000  0.000000  -37.31576482678615  -0.24028735648800273  -15.32544334409521  49.22758726144204  15.643409737118207  12.76451816924597  53.6475061473982  7.595010428695742  -38.19741307514141  17.461340358472548  120.000000
7.06635  0.000000  0.000000  0.000000  -37.423467973943644  -0.17759424118795225  -14.333000682383778  49.436380752808724  15.137527327016226  12.173270008865735  56.47837976539415  6.821420978653658  -40.28790266809847  17.46881120396937  120.000000
7.1238  0.000000  0.000000  0.000000  -37.49365669485465  -0.14140365391722892  -13.373776252675736  49.61698612041166  14.60161178788937  11.577767129507158  59.00791149515535  6.137691221447168  -42.254069975398494  17.378434815975492  120.000000
7.18125  0.000000  0.000000  0.000000  -37.54688565851493  -0.12315682321458093  -12.45537259956743  49.76487206105559  14.056304060879505  10.989769787477346  61.21182405642776  5.546581706926909  -44.07979204465105  17.276095229761165  120.000000
7.2387  0.000000  0.000000  0.000000  -37.6005595426776  -0.11451082846849084  -11.582127542844109  49.881988649552596  13.521006628097226  10.414807593020425  63.03649818806791  5.052581805886571  -45.713037916206055  17.237189276922827  120.000000
7.29615  0.000000  0.000000  0.000000  -37.663446852729535  -0.1095541205683876  -10.755978072315234  49.97230710721032  13.009702046631089  9.858592547663864  64.39948983430241  4.652499455466921  -47.05719725054352  17.298648479124683  120.000000
7.3536  0.000000  0.000000  0.000000  -37.73332431353976  -0.10594040498649254  -9.97744800320539  50.039434851299404  12.529426531282802  9.330148235943403  65.21763384529487  4.332016749391749  -47.997091648880115  17.4535260767847  120.000000
7.41105  0.000000  0.000000  0.000000  -37.800924486168356  -0.10252070342209604  -9.247585998660595  50.09027726119869  12.083294632075388  8.837247022362877  65.42803608324068  4.071861097466678  -48.427832693706954  17.66783221876306  120.000000
7.468500000000001  0.000000  0.000000  0.000000  -37.85411530270161  -0.09649693713881552  -8.569033377734288  50.13480723122827  11.672390329805427  8.383796547608423  65.00247177330324  3.8527968215381256  -48.279495203517804  17.903470586940074  120.000000
7.52595  0.000000  0.000000  0.000000  -37.88554046349781  -0.08575122105741646  -7.94499846133274  50.179671872593524  11.295826216248296  7.972133004300052  63.946889796098056  3.6582581326861714  -47.525406730921695  18.13418066686847  120.000000
7.5834  0.000000  0.000000  0.000000  -37.89635747678881  -0.07058502449172394  -7.378129028315929  50.22594269142938  10.951656689848773  7.604178905141254  62.2926078658852  3.476481256244287  -46.177330094036925  18.3511054657092  120.000000
7.64085  0.000000  0.000000  0.000000  -37.89344926676808  -0.052716236100552545  -6.869952848583539  50.27114855261059  10.638275947707626  7.281066213145934  60.08382236750577  3.300334774814505  -44.271035593540084  18.557928493717593  120.000000
7.6983  0.000000  0.000000  0.000000  -37.886468989930876  -0.03433003242824416  -6.420794088591408  50.31202399478598  10.355507797328572  7.002365690137258  57.35241538859174  3.1262988604651483  -41.83710352389035  18.762078860365595  120.000000
7.75575  0.000000  0.000000  0.000000  -37.88414817291458  -0.01641512174751685  -6.029819509337216  50.34704051457869  10.105263166464912  6.765598758744813  54.09612954848316  2.953924064042903  -38.87520336116434  18.967929273779795  120.000000
